<svg width="36" height="36" viewBox="0 0 36 36" fill="none" xmlns="http://www.w3.org/2000/svg">
<path d="M18.0006 36C15.6614 36 13.3838 35.5314 11.2498 34.5941C9.17744 33.6781 7.33076 32.3787 5.73028 30.7385C4.1298 29.077 2.87815 27.1598 2.01636 25.0083C1.11353 22.7929 0.662109 20.4284 0.662109 18C0.662109 15.5716 1.11353 13.2071 2.01636 10.9917C2.89867 8.84025 4.1298 6.92307 5.73028 5.26155C7.33076 3.62131 9.17744 2.3219 11.2498 1.40592C13.3838 0.468641 15.6409 0 18.0006 0C20.3602 0 22.6173 0.468641 24.7513 1.40592C26.8237 2.3219 28.6704 3.6 30.2708 5.26155C31.8713 6.92307 33.123 8.84025 33.9847 10.9917C34.8876 13.2071 35.339 15.5716 35.339 18C35.339 20.4284 34.8876 22.7929 33.9847 25.0083C33.1024 27.1598 31.8713 29.077 30.2708 30.7385C28.6704 32.4 26.8237 33.6994 24.7513 34.5941C22.5968 35.5314 20.3397 36 18.0006 36ZM18.0006 0.468641C8.68499 0.468641 1.11353 8.329 1.11353 18C1.11353 27.671 8.68499 35.5314 18.0006 35.5314C27.3161 35.5314 34.8876 27.671 34.8876 18C34.8876 8.329 27.2956 0.468641 18.0006 0.468641Z" fill="#2767B1"/>
<path d="M18.0029 34.828C26.9554 34.828 34.2127 27.2936 34.2127 17.9996C34.2127 8.70545 26.9554 1.17114 18.0029 1.17114C9.05037 1.17114 1.79297 8.70545 1.79297 17.9996C1.79297 27.2936 9.05037 34.828 18.0029 34.828Z" fill="#E3F4FC"/>
<path d="M17.999 34.8707C15.8035 34.8707 13.6695 34.4234 11.6792 33.55C9.75038 32.6979 8.0063 31.4837 6.50841 29.9287C5.01053 28.3736 3.84096 26.563 3.02021 24.5606C2.17894 22.473 1.74805 20.2789 1.74805 17.9997C1.74805 15.7204 2.17894 13.505 3.02021 11.4387C3.84096 9.43634 5.01053 7.62571 6.50841 6.07067C8.0063 4.51562 9.75038 3.30144 11.6792 2.44937C13.69 1.576 15.8035 1.12866 17.999 1.12866C20.1945 1.12866 22.3284 1.576 24.3188 2.44937C26.2476 3.30144 27.9917 4.51562 29.4895 6.07067C30.9874 7.62571 32.157 9.43634 32.9778 11.4387C33.819 13.5263 34.2499 15.7204 34.2499 17.9997C34.2499 20.2789 33.819 22.4944 32.9778 24.5606C32.157 26.563 30.9874 28.3736 29.4895 29.9287C27.9917 31.4837 26.2476 32.6979 24.3188 33.55C22.308 34.4234 20.1945 34.8707 17.999 34.8707ZM17.999 1.21387C9.07327 1.21387 1.83012 8.73342 1.83012 17.9997C1.83012 27.266 9.07327 34.7855 17.999 34.7855C26.9247 34.7855 34.1679 27.266 34.1679 17.9997C34.1679 8.73342 26.9042 1.21387 17.999 1.21387Z" fill="#2767B1"/>
<path d="M27.4594 23.9643L17.1384 17.9998L8.54102 23.3465L18.1644 29.7796L27.4594 23.9643Z" fill="#4590CD"/>
<path d="M27.0696 11.8226L18.1438 6.22021L8.54102 12.696V23.3469L27.0696 11.8226Z" fill="#2767B1"/>
</svg>
