<?xml version="1.0" standalone="no"?>
<!DOCTYPE svg PUBLIC "-//W3C//DTD SVG 20010904//EN"
 "http://www.w3.org/TR/2001/REC-SVG-20010904/DTD/svg10.dtd">
<svg version="1.0" xmlns="http://www.w3.org/2000/svg"
 width="512.000000pt" height="512.000000pt" viewBox="0 0 512.000000 512.000000"
 preserveAspectRatio="xMidYMid meet">
<metadata>
Created by potrace 1.14, written by Peter Selinger 2001-2017
</metadata>
<g transform="translate(0.000000,512.000000) scale(0.100000,-0.100000)"
fill="#000000" stroke="none">
<path d="M2305 5113 c-497 -53 -956 -241 -1350 -552 -90 -71 -289 -265 -362
-353 -322 -387 -528 -872 -582 -1370 -14 -123 -14 -435 -1 -553 64 -576 309
-1098 708 -1507 372 -382 816 -626 1322 -728 198 -39 307 -50 522 -50 351 0
624 52 943 177 231 91 392 181 594 330 121 90 333 290 428 404 323 388 528
872 582 1371 14 126 14 432 0 556 -26 236 -87 478 -178 700 -89 214 -176 368
-319 562 -98 133 -355 395 -477 487 -362 273 -716 427 -1160 504 -96 17 -170
22 -375 24 -140 2 -273 1 -295 -2z m605 -88 c614 -92 1168 -403 1562 -875 687
-823 767 -1987 200 -2903 -183 -297 -455 -574 -758 -773 -311 -205 -649 -329
-1049 -386 -119 -16 -494 -16 -615 1 -737 101 -1371 500 -1776 1117 -205 311
-329 648 -386 1049 -19 137 -16 503 6 650 79 530 313 1005 681 1384 423 436
955 692 1558 751 127 12 451 4 577 -15z"/>
<path d="M2258 4945 c-298 -42 -535 -116 -798 -250 -236 -120 -425 -261 -620
-462 -353 -361 -560 -769 -651 -1278 -27 -151 -37 -492 -19 -646 35 -309 114
-571 255 -849 120 -236 261 -425 462 -620 361 -353 770 -561 1278 -651 153
-27 492 -37 646 -20 471 55 905 235 1264 526 124 100 314 298 410 427 445 592
589 1367 388 2088 -83 300 -248 619 -448 865 -99 122 -297 313 -423 407 -309
233 -646 377 -1049 449 -153 28 -546 36 -695 14z m687 -34 c509 -88 928 -304
1291 -666 371 -370 593 -803 681 -1330 26 -156 26 -553 0 -710 -89 -538 -320
-983 -703 -1355 -304 -295 -675 -502 -1076 -600 -226 -55 -312 -65 -578 -65
-253 0 -348 10 -546 55 -854 198 -1549 883 -1763 1739 -55 219 -66 313 -66
581 0 253 10 348 55 546 216 934 1011 1667 1960 1808 163 24 162 24 400 21
172 -2 253 -8 345 -24z"/>
<path d="M1868 3779 l-708 -461 0 -761 0 -762 707 -455 c389 -250 712 -455
718 -455 12 0 1374 818 1375 825 0 3 -340 194 -755 425 -415 231 -755 422
-755 425 0 3 327 200 725 439 399 238 725 436 725 440 0 6 -1313 801 -1321
801 -2 -1 -322 -208 -711 -461z"/>
</g>
</svg>
